<svg width="14" height="15" viewBox="0 0 14 15" fill="none" xmlns="http://www.w3.org/2000/svg">
<mask id="path-1-inside-1_21_31" fill="#fff">
<path d="M7.5 15C6.20439 15 4.93088 14.6644 3.80356 14.0258C2.67624 13.3873 1.73357 12.4676 1.06739 11.3564C0.401212 10.2451 0.0342575 8.9803 0.00228371 7.68509C-0.0296901 6.38988 0.274407 5.10847 0.884942 3.96574C1.49548 2.823 2.39163 1.85792 3.48606 1.16452C4.5805 0.471121 5.8359 0.0730637 7.12993 0.00913529C8.42396 -0.0547931 9.71248 0.217588 10.8699 0.799735C12.0274 1.38188 13.0143 2.25394 13.7345 3.33094L7.5 7.5L7.5 15Z"/>
</mask>
<path d="M7.5 15C6.20439 15 4.93088 14.6644 3.80356 14.0258C2.67624 13.3873 1.73357 12.4676 1.06739 11.3564C0.401212 10.2451 0.0342575 8.9803 0.00228371 7.68509C-0.0296901 6.38988 0.274407 5.10847 0.884942 3.96574C1.49548 2.823 2.39163 1.85792 3.48606 1.16452C4.5805 0.471121 5.8359 0.0730637 7.12993 0.00913529C8.42396 -0.0547931 9.71248 0.217588 10.8699 0.799735C12.0274 1.38188 13.0143 2.25394 13.7345 3.33094L7.5 7.5L7.5 15Z" stroke="#fff" stroke-width="2.8" mask="url(#path-1-inside-1_21_31)"/>
</svg>