<svg xmlns="http://www.w3.org/2000/svg" id="Layer_1" x="0" y="0" viewBox="0 0 827.5 250" style="enable-background:new 0 0 827.5 250" xml:space="preserve"><style>.st0{fill:#666}</style><switch><g><path class="st0" d="M16.7 8c.1 3.7-2.6 6.7-6.9 6.7-3.8 0-6.5-3-6.5-6.7C3.2 4.2 6 1.2 10 1.2c4.1 0 6.7 3 6.7 6.8zM4.6 84.5V24.8h10.9v59.7H4.6zM104.9 42.1c0 28.6-17.4 43.8-38.6 43.8-22 0-37.4-17-37.4-42.2C28.9 17.3 45.3 0 67.5 0c22.7 0 37.4 17.4 37.4 42.1zm-64.6 1.3c0 17.8 9.6 33.7 26.5 33.7 17 0 26.6-15.7 26.6-34.5C93.5 26 84.9 8.8 67 8.8c-17.8 0-26.7 16.4-26.7 34.6zM117.4 71.4c4.8 3 11.8 5.4 19.2 5.4 11 0 17.4-5.8 17.4-14.2 0-7.8-4.4-12.2-15.7-16.5-13.6-4.8-22-11.8-22-23.6 0-13 10.7-22.6 26.9-22.6 8.5 0 14.7 2 18.4 4.1l-3 8.8c-2.7-1.5-8.3-3.9-15.8-3.9-11.4 0-15.7 6.8-15.7 12.5 0 7.8 5.1 11.6 16.5 16 14.1 5.4 21.2 12.2 21.2 24.4 0 12.8-9.5 23.9-29.1 23.9-8 0-16.8-2.3-21.2-5.3l2.9-9zM81.5 244.7c-5.1 2.6-15.3 5.1-28.4 5.1-30.3 0-53.1-19.1-53.1-54.4 0-33.7 22.8-56.5 56.2-56.5 13.4 0 21.9 2.9 25.5 4.8L78.4 155c-5.3-2.6-12.8-4.5-21.7-4.5-25.2 0-42 16.1-42 44.4 0 26.3 15.2 43.2 41.3 43.2 8.5 0 17.1-1.8 22.7-4.5l2.8 11.1zM166.6 209c0 28.6-19.8 41-38.5 41-20.9 0-37-15.3-37-39.7 0-25.9 16.9-41 38.3-41 22.2 0 37.2 16.1 37.2 39.7zm-61.3.8c0 16.9 9.7 29.7 23.5 29.7 13.4 0 23.5-12.6 23.5-30 0-13.1-6.5-29.7-23.1-29.7-16.7 0-23.9 15.3-23.9 30zM239.4 245.4c-3.7 1.9-11.8 4.5-22.2 4.5-23.3 0-38.5-15.8-38.5-39.4 0-23.8 16.3-41 41.5-41 8.3 0 15.6 2.1 19.5 4l-3.2 10.9c-3.3-1.9-8.6-3.7-16.3-3.7-17.7 0-27.3 13.1-27.3 29.2 0 17.9 11.5 28.9 26.8 28.9 8 0 13.2-2.1 17.2-3.8l2.5 10.4zM324.8 209c0 28.6-19.8 41-38.5 41-20.9 0-37-15.3-37-39.7 0-25.9 16.9-41 38.3-41 22.2 0 37.2 16.1 37.2 39.7zm-61.3.8c0 16.9 9.7 29.7 23.5 29.7 13.4 0 23.5-12.6 23.5-30 0-13.1-6.5-29.7-23.1-29.7-16.7 0-23.9 15.3-23.9 30zM385.3 248.2l-1.1-9.7h-.5c-4.3 6.1-12.6 11.5-23.6 11.5-15.6 0-23.6-11-23.6-22.2 0-18.7 16.6-28.9 46.4-28.7v-1.6c0-6.4-1.8-17.9-17.6-17.9-7.2 0-14.7 2.2-20.1 5.7L342 176c6.4-4.1 15.6-6.9 25.4-6.9 23.6 0 29.4 16.1 29.4 31.6v28.9c0 6.7.3 13.2 1.3 18.5h-12.8zm-2.1-39.4c-15.3-.3-32.7 2.4-32.7 17.4 0 9.1 6.1 13.4 13.2 13.4 10.1 0 16.4-6.4 18.7-12.9.5-1.4.8-3 .8-4.5v-13.4zM467.6 152.5h-32.7v-11.8h79.6v11.8h-32.9v95.7h-14v-95.7zM584.6 209c0 28.6-19.8 41-38.5 41-20.9 0-37-15.3-37-39.7 0-25.9 16.9-41 38.3-41 22.2 0 37.2 16.1 37.2 39.7zm-61.3.8c0 16.9 9.7 29.7 23.5 29.7 13.4 0 23.5-12.6 23.5-30 0-13.1-6.5-29.7-23.1-29.7s-23.9 15.3-23.9 30zM667 227.2c0 8 .2 15 .6 21.1h-12.4l-.8-12.6h-.4c-3.7 6.2-11.8 14.4-25.5 14.4-12.1 0-26.6-6.7-26.6-33.8V171h14v42.8c0 14.7 4.5 24.6 17.2 24.6 9.4 0 16-6.5 18.5-12.8.8-2.1 1.3-4.6 1.3-7.2V171h14v56.2zM745.3 245.4c-3.7 1.9-11.8 4.5-22.2 4.5-23.3 0-38.5-15.8-38.5-39.4 0-23.8 16.3-41 41.5-41 8.3 0 15.6 2.1 19.5 4l-3.2 10.9c-3.3-1.9-8.6-3.7-16.3-3.7-17.7 0-27.3 13.1-27.3 29.2 0 17.9 11.5 28.9 26.8 28.9 8 0 13.2-2.1 17.2-3.8l2.5 10.4zM761.8 134.9h14v48.2h.3c2.2-4 5.7-7.5 10.1-9.9 4.1-2.4 9.1-4 14.4-4 10.4 0 27 6.4 27 33v46h-14v-44.4c0-12.4-4.6-23-17.9-23-9.1 0-16.3 6.4-18.8 14-.8 1.9-1 4-1 6.7v46.6h-14V134.9z"></path></g></switch></svg>