<svg xmlns="http://www.w3.org/2000/svg" xmlns:xlink="http://www.w3.org/1999/xlink" id="layer" x="0px" y="0px" viewBox="0 0 740.3 250" style="enable-background:new 0 0 740.3 250;" xml:space="preserve"><style type="text/css">	.st0{fill:#3880FF;}</style><g>	<g id="icon">		<path id="Shape" class="st0" d="M125,68.2c-31.5,0-57,25.5-57,57s25.5,57,57,57s57-25.5,57-57C181.9,93.7,156.3,68.2,125,68.2z"></path>		<circle id="Oval" class="st0" cx="206.7" cy="47.3" r="26"></circle>		<path id="Shape_1_" class="st0" d="M238.6,73.3l-1-2.3l-1.7,2.1c-4.2,4.8-9.7,8.5-15.7,10.7l-1.7,0.7l0.7,1.7   c5.3,12.5,7.8,25.7,7.8,39.1c0,56.3-45.8,102.2-102.2,102.2s-102-45.9-102-102.2S68.6,23.2,125,23.2c15.3,0,29.9,3.5,43.7,9.9   l1.5,0.7l0.7-1.7c2.6-5.9,6.4-11.1,11.6-15.2l2.1-1.7l-2.3-1.2C164.4,4.8,145.2,0,125,0C56.1,0,0,56.1,0,125s56.1,125,125,125   s125-56.1,125-125C249.9,107.1,246.1,89.8,238.6,73.3z"></path>	</g>	<g id="logotype" transform="translate(40.000000, 8.000000)">		<rect id="Rectangle-path" x="274.3" y="62.7" class="st0" width="26.4" height="108.8"></rect>		<rect id="Rectangle-path_1_" x="558.7" y="62.7" class="st0" width="26.4" height="108.8"></rect>		<path id="Shape_2_" class="st0" d="M497.8,60.2c-18.5,0-32.8,11.2-36,14.3L460,62.8h-22v108.8h26.4v-65.8   c0-13,17.5-23.4,30.5-23.4c12.6,0,22.5,12.2,22.5,26.9v62.4h26.4v-59.8C543.5,83.2,531.2,60.2,497.8,60.2z"></path>		<path id="Shape_3_" class="st0" d="M654.1,151.8c-19.9,0-32.9-15.4-32.9-34.7s13.1-34.7,32.9-34.7c16.8,0,27.1,16.3,27.1,16.3   l19-12.7c-5.4-8.5-11.8-13.6-20.6-18.9c-6.4-3.9-15.2-7.2-24.8-7.2c-32.9,0-58.1,24.8-58.4,57c0.1,32.1,25.3,57,58.4,57   c9.7,0,18.4-3.2,24.8-7.2c8.6-5.3,15.2-10.4,20.6-18.9l-19-12.7C681.2,135.4,671,151.8,654.1,151.8z"></path>		<path id="path3000_1_" class="st0" d="M369.3,60.2c-33.2,0-57,26-57,56.4c0,31,23.1,57.5,57.5,57.5c31.1,0,56.4-23.8,56.4-56.8   C426.2,79.6,396.7,60.2,369.3,60.2z M369.7,82.7c16.3,0,31.8,13.2,31.8,34.7c0,20.9-15.4,34.6-32,34.6c-18,0-32.3-14.6-32.3-34.7   C337.2,97.3,351.3,82.7,369.7,82.7z"></path>	</g></g></svg>