<svg xmlns="http://www.w3.org/2000/svg" xmlns:xlink="http://www.w3.org/1999/xlink" id="Layer_1" x="0px" y="0px" viewBox="0 0 986.1 250" style="enable-background:new 0 0 986.1 250;" xml:space="preserve"><g transform="matrix(.036771 0 0 .036771 3 0)">	<g>		<g>			<path id="a" d="M4541.6,3612.3c-7.8-860.1,703.1-1273.4,735.1-1293.7c-400-585.1-1021.8-664.8-1243.7-674.2    c-528.9-53.9-1032.8,311.7-1301.5,311.7s-682.8-303.9-1121.8-295.3c-577.3,8.6-1109.3,335.1-1407,852.3    C-396.4,3552.1,49.7,5093.5,634,5937.9c285.9,412.5,625.7,877.3,1073.4,860.1c431.2-17.2,593.7-278.9,1114-278.9    s667.1,278.9,1121.8,270.3c463.3-9.4,757-421.9,1040.6-835.9c327.3-478.9,462.5-942.9,470.3-967.1    C5443.9,4982.5,4551,4640.4,4541.6,3612.3"></path>		</g>	</g>	<path d="M3686.2,1085.9C3923.7,798.4,4083.8,398.4,4040.1,0c-342.2,14.1-756.2,228.1-1001.5,515.6  c-219.5,253.9-412.5,660.9-360.1,1051.5C3058.9,1596.8,3448.7,1372.6,3686.2,1085.9"></path></g><g>	<path d="M281.9,225.8h22.6v-96.3h-22.6V225.8z M293.1,116.9c7.1,0,12.6-5.4,12.6-12.3c0-6.9-5.5-12.3-12.6-12.3  c-7,0-12.5,5.4-12.5,12.3C280.6,111.5,286.1,116.9,293.1,116.9z M379.7,92.6c-38.2,0-62.2,26.1-62.2,67.7s24,67.7,62.2,67.7  c38.1,0,62.1-26,62.1-67.7S417.9,92.6,379.7,92.6z M379.7,112.6c23.3,0,38.2,18.5,38.2,47.8c0,29.1-14.9,47.7-38.2,47.7  c-23.4,0-38.2-18.5-38.2-47.7C341.5,131.1,356.3,112.6,379.7,112.6z M451.4,188.9c1,24.2,20.8,39,50.9,39  c31.7,0,51.7-15.6,51.7-40.5c0-19.5-11.3-30.5-37.9-36.6l-15.1-3.5c-16.1-3.8-22.7-8.9-22.7-17.6c0-10.9,10-18.2,24.8-18.2  c15,0,25.2,7.4,26.3,19.6h22.3c-0.5-23.1-19.6-38.7-48.5-38.7c-28.5,0-48.8,15.7-48.8,39c0,18.7,11.4,30.3,35.6,35.9l17,4  c16.5,3.9,23.2,9.4,23.2,18.8c0,10.9-11,18.7-26.8,18.7c-16,0-28.1-7.9-29.5-20L451.4,188.9L451.4,188.9z"></path></g><g>	<path d="M649.9,199.9c7.8,4.5,19.5,8.4,31.8,8.4c15.4,0,24-7.2,24-17.9c0-10-6.6-15.8-23.4-21.9c-21.7-7.8-35.5-19.3-35.5-38.3  c0-21.5,18-37.9,46.5-37.9c14.2,0,24.8,3.1,31.6,6.6l-5.9,19.3c-4.7-2.5-13.9-6.2-26.2-6.2c-15.2,0-21.9,8.2-21.9,15.8  c0,10.1,7.6,14.8,25.2,21.7c22.8,8.6,34,20.1,34,39c0,21.1-16,39.4-50,39.4c-13.9,0-28.3-3.9-35.5-8.2L649.9,199.9z"></path>	<path d="M751.8,96.2c10.5-1.8,24-2.7,38.3-2.7c24.6,0,41.6,5.1,53.7,15.2c12.7,10.3,20.5,26,20.5,48.4c0,23.4-8,41-20.5,52.3  c-13.1,11.9-34,18-59.5,18c-14,0-24.6-0.8-32.4-1.8V96.2z M775.8,207.7c3.3,0.6,8.4,0.6,13.3,0.6c31.2,0.2,49.8-17,49.8-50.3  c0.2-29.1-16.6-45.7-46.7-45.7c-7.6,0-13.1,0.6-16.4,1.4V207.7z"></path>	<path d="M885.2,94.5H909V155h0.6c3.1-5.1,6.4-9.8,9.6-14.3l34.4-46.3h29.7l-45.3,56l48.2,75.5H958l-37.3-60.3l-11.7,14V226h-23.8  V94.5z"></path></g></svg>