<svg xmlns="http://www.w3.org/2000/svg" xmlns:xlink="http://www.w3.org/1999/xlink" id="Layer_1" x="0px" y="0px" viewBox="0 0 546.1 170" style="enable-background:new 0 0 546.1 170;" xml:space="preserve"><style type="text/css">	.st0{fill:#F05138;}	.st1{fill:#FFFFFF;}</style><g>	<path class="st0" d="M169.5,46.9c0-1.6,0-3.5,0-5.1c0-3.7-0.3-7.5-1.1-11.2c-0.5-3.7-1.9-7.2-3.5-10.7c-3.2-6.4-8.8-11.8-15.5-15.3  c-3.2-1.6-7-2.9-10.7-3.5s-7.5-0.8-11.2-1.1c-1.6,0-3.5,0-5.1,0c-2.1,0-4,0-6.2,0H52.7c-2.1,0-4,0-6.2,0c-1.6,0-3.5,0-5.1,0  c-0.8,0-1.9,0-2.7,0c-2.7,0-5.6,0.3-8.3,0.8s-5.4,1.3-8,2.4C18.2,5.1,14.2,7.5,11,11c-2.7,2.7-4.8,5.6-6.4,9.1  c-1.6,3.5-2.9,7-3.5,10.7S0.3,38.3,0,42c0,1.6,0,3.5,0,5.1c0,2.1,0,4,0,6.2v63.4c0,2.1,0,4,0,6.2c0,1.6,0,3.5,0,5.1  c0,3.7,0.3,7.5,1.1,11.2c0.5,3.7,1.9,7.2,3.5,10.7c3.5,6.7,8.8,12,15.5,15.5c3.5,1.6,7,2.9,10.7,3.5c3.7,0.5,7.5,0.8,11.2,1.1  c1.6,0,3.5,0,5.1,0c2.1,0,4,0,6.2,0h63.4c2.1,0,4,0,6.2,0c1.6,0,3.5,0,5.1,0c3.7,0,7.5-0.3,11.2-1.1c3.7-0.5,7.2-1.9,10.7-3.5  c6.7-3.5,12-8.8,15.5-15.5c1.6-3.5,2.9-7,3.5-10.7c0.5-3.7,0.8-7.5,1.1-11.2c0-1.6,0-3.5,0-5.1c0-2.1,0-4,0-6.2V53  C169.5,51.1,169.5,49,169.5,46.9L169.5,46.9z"></path>	<path class="st1" d="M134.4,104.7L134.4,104.7c0.3-0.5,0.3-1.3,0.5-1.9c7-28.1-10.2-61.3-39.1-78.7c12.9,17.1,18.5,38.3,13.4,56.5  c-0.5,1.6-1.1,3.2-1.6,4.8c-0.8-0.5-1.6-1.1-2.4-1.6c0,0-28.9-17.9-60.2-49.5c-0.8-0.8,16.6,25.2,36.7,46C72.3,75,46,56,29.7,41  c2.1,3.5,4.6,6.7,7.2,9.9C50.9,68.3,68.8,90,90.2,106.6c-15.3,9.4-36.7,9.9-57.8,0c-5.4-2.4-10.2-5.4-14.7-8.8  c9.6,15.3,23.6,27,39.9,34.3c20.1,8.6,40.2,8,55.1,0.3l0,0c0,0,0.3,0,0.3-0.3c0.5-0.3,1.3-0.5,1.9-1.1c7.2-3.7,21.4-7.5,28.9,7.2  C144.8,141.9,148.9,122.6,134.4,104.7L134.4,104.7z"></path>	<path d="M234,110c1.3,11.8,12.6,19.5,28.1,19.5c14.7,0,25.4-7.8,25.4-18.5c0-9.1-6.4-14.7-21.4-18.5l-14.5-3.7  c-20.6-5.1-30-14.5-30-30c0-19,16.6-32.1,40.2-32.1c23,0,39.1,13.1,39.6,32.4h-15.3c-1.1-11.8-10.7-18.7-24.9-18.7  c-14.2,0-23.8,7.2-23.8,17.9c0,8.3,6.2,13.1,21.1,16.9l12,3.2c23.3,5.6,32.7,14.7,32.7,31.1c0,20.6-16.3,33.7-42.6,33.7  c-24.4,0-41-12.9-42-32.9L234,110L234,110z M399.7,141.1h-15.3L366.5,79h-0.3l-17.7,62.1h-15.3l-22.5-81.4h14.7l15.8,65.3h0.3  l17.7-65.3h14.5l17.9,65.3h0.3l15.8-65.3h14.7L399.7,141.1z M432.1,37.7c0-4.8,4-8.8,8.8-8.8c5.1,0,9.1,4,9.1,8.8s-4,8.8-9.1,8.8  C436.1,46.9,432.1,42.8,432.1,37.7L432.1,37.7z M433.7,59.7h15v81.4h-15V59.7z M545.9,71.7v-12h-15.8V40.2h-14.7v19.5H487v-7.2  c0-7.2,2.9-10.2,9.6-10.2c2.1,0,4.3,0.3,6.2,0.5V31.1c-2.7-0.5-5.4-0.5-7.8-0.5c-15.8,0-22.5,6.7-22.5,21.7v7.5h-11.2v12h11.2v69.3  h14.7V71.7h28.4v48.2c0,15.8,5.9,21.7,21.7,21.7c3.5,0,7.2-0.3,8.8-0.5v-12c-1.9,0.3-3.7,0.3-5.6,0.3c-7,0-10.2-3.2-10.2-10.7V71.7  H545.9z"></path></g></svg>