<svg xmlns="http://www.w3.org/2000/svg" xmlns:xlink="http://www.w3.org/1999/xlink" id="Layer_1" x="0px" y="0px" viewBox="0 0 705.4 250" style="enable-background:new 0 0 705.4 250;" xml:space="preserve"><style type="text/css">	.st0{fill:#235EE1;}</style><path class="st0" d="M189.5,104.3c0-0.5,15.8-49.8,16.4-51.9c3.3-10.8,19.8-16.8,27.9-8.1c3,4.8,8.1,4.9,12.9,6.4 c2.2,0.8,3-0.1,3.6-2.1c0,0,5.7-19.4,5.7-19.4c2.2-7.3,2.2-7.3-5-9.8c-3-1-5.6-1.5-8.7-0.2c-11.8,5.3-17.9-10.4-28.7-12.5 c-24.9-8.3-56.9-12-78.6,5.6C204.8,4,187.1,51.6,174,97.2c-0.4,1.3-0.7,2.4,1,2.8C175,100.1,189.5,104.3,189.5,104.3L189.5,104.3z"></path><path class="st0" d="M143.9,249.9c8,0.9,12.4-7,14-13.8c0,0,21.2-88.3,21.2-88.3l8.6-36.7c1.6-5.6-8.3-4.3-11.6-6.4 c-5.7-1.7-4.6-1.5-6.3,3.3l-42,119.7C123.4,238.8,131.3,250.2,143.9,249.9L143.9,249.9z M0.2,72.2C7.7,123.4,16.9,184,24.5,235.1 c0.3,1.9,1,2.8,3.3,2.4l40.4-6.4l57.7-9c0.7-0.2,1.3-1,2-1.6c-0.8-0.4-1.8-1.3-2.5-1.2c-20,3.1-74.5,11.3-95.2,14.7 c-2.2,0.4-3-0.2-3.3-2.3c-2.7-17.7-10.4-70.4-13.3-88.9c0,0-10-66.8-10-66.8c-0.4-2.4,0.4-3.6,2.9-3.9c38.8-6.2,114.3-18.5,153.7-25 c0,0,19.9-3.4,19.9-3.4c0.8-0.2,1.4-1.3,2.1-2c-0.7-0.3-2.8-1.4-3.5-0.9c0,0-24.8,4.1-24.8,4.1L2.4,70c-1.9,0.3-2.8,0.8-2.2,2.4 L0.2,72.2z M211.3,47.6c-0.4,0-0.9,0-1.3-0.1c-1.8,3.6,1.8,19.7,2.3,23.6c0,0,8,48.3,8,48.3l13.3,79.1c0.3,1.6,0,2.7-1.9,3 l-42.7,6.7c-1.1,0.6-22.3,2.5-21.9,5c2.6,3.2,65.2-9.8,70.1-9.6C237.3,203.5,211.3,47.6,211.3,47.6z M155.1,140.9 c1.7-1.7,1.4-3,0.2-4.4l-13.9-16.7c0,0-39-47-39-47c-3.6-3.8-2.8-10,2.5-11.9c3.3-1.3,6.2-0.4,9,3c6.9,8.2,41.5,49.6,47.6,56.8 c1.6-1.7,1.4-3,0.2-4.4L146.6,98l-30.9-36.7c-4.1-4.8-10.4-5.1-15-1.1c-4.5,3.9-4.7,9.5-0.5,14.5L155.1,140.9L155.1,140.9z  M104,109.8c-0.3-1.1-16-6.3-17.1-6.8c-1.6-0.7-2.4,0-3,1.4l-28,68.8c-0.7,1.7-0.2,2.5,1.3,3.1l14.4,5.9c2.6,1.2,3.6,0.7,4.6-2 L104,109.8L104,109.8z M152.8,141.5l-9.9-12.6c-3.3-6.2-7.8-4.6-13.5-3.3c-2.7,1.3-33.1,3.6-33.3,7.6c-0.4,1.4-6.8,17.8-6.4,18.8 l63.1-10.4L152.8,141.5z M69.6,134.9l-35.6,5.8c3.8,25.9-1,17.9,24,15.9c1.9-0.2,3-1,3.8-2.7C62.6,151.8,69.3,136.9,69.6,134.9 L69.6,134.9z M199.8,181.2l-22.4-13.5c1.6,12.6,20.4,6.8,20.9,22.7c10.9-12.1,3.8-34.6-10-41.9c-3.7-1.6-8.3,2-7.5,6.1 C192.9,142.4,203.7,172.9,199.8,181.2L199.8,181.2z"></path><path class="st0" d="M50.8,212.2c0.3,0.1,0.6,0.3,0.9,0.4l22.2-27.8c-1.3-1-14.9-6.3-16.7-7c-2.2-1-2.9-0.3-3,2 C53.4,187.7,51.6,204.4,50.8,212.2L50.8,212.2z M98.6,84.5c-7.8,0-9.7,8.5-12.2,14.2c-0.7,1.6-0.5,2.5,1.3,3.1l14.8,5.5 c1.8,0.7,2.5,0.1,3.2-1.5l3.6-8.4C112.9,89.6,104.4,86.6,98.6,84.5z M185.5,135.6l18.4-2.6c0.5-0.1,1.2-1.4,1.1-2l-2.7-14.7 c-0.2-0.7-1.4-1.8-2.2-1.8c-2.8,0.9-13-0.6-11.1,4.4c14.5-2,9.4-1.8,12.7,11.4l-13.8,1.9C186.5,132.4,185,132.9,185.5,135.6 L185.5,135.6z M189.4,104.3c0,0-14.3-4.1-14.3-4.1c-1.7-0.5-1.4-1.6-1-2.8c13.2-45.6,30.6-93.4-39.1-84.8 c21.7-17.7,53.7-13.8,78.6-5.6c10.9,2.1,16.9,17.8,28.7,12.5c3.1-1.3,5.8-0.9,8.7,0.2c7.1,2.5,7.1,2.4,5,9.8c0,0-5.7,19.4-5.7,19.4 c-0.7,2-1.4,2.8-3.6,2.1c-4.8-1.6-10-1.5-12.9-6.4c-8.3-8.6-24.4-2.9-27.9,8.1C199.2,69.3,194.8,86.9,189.4,104.3L189.4,104.3z"></path><path class="st0" d="M143.9,249.9c-12.7,0.3-20.6-11.1-16.2-22.3c0,0,42.1-119.6,42.1-119.6c1.6-4.7,0.7-4.9,6.3-3.3 c0,0,9.3,2.6,9.3,2.6c2.3,0.5,2.9,1.5,2.3,3.9l-8.7,36.7L158,236.1C156.4,243,151.9,250.8,143.9,249.9L143.9,249.9z M0.2,72.2 c-0.7-1.6,0.3-2.1,2.2-2.4c24.8-4,74.4-12.2,99.1-16.3c16.6-2.7,61.2-10,77.3-12.7c1-0.5,2.6,0.7,3.5,0.9 c-22,8.4-151,25.1-175.7,30.5c-2.4,0.3-3.3,1.4-2.9,3.9L23,204.1c0,0,4,27.6,4,27.6c0.3,2.2,1,2.7,3.3,2.3 c20.9-3.6,74.9-11.6,95.2-14.7c0.7-0.1,1.7,0.7,2.5,1.2c-0.7,0.7-1.3,1.5-2,1.6l-57.7,9l-40.4,6.4c-2.3,0.4-3-0.5-3.3-2.4 C16.8,184,7.8,123.3,0.2,72.2L0.2,72.2z M211.3,47.6l26.1,156c-9.5,1.6-51.4,8.3-61.8,9.9c-1.7,0-7,1.7-8.4-0.2 c-0.4-2.5,20.6-4.4,21.9-5c0,0,42.7-6.7,42.7-6.7c1.9-0.3,2.2-1.4,1.9-3c-4.6-34.9-22.1-116.4-23.6-151.1 C210.5,47.5,210.9,47.5,211.3,47.6L211.3,47.6z M155.1,140.9c-2.4-2.8-50.9-61.3-55-66.2c-10-10.4,7.1-24.2,15.6-13.4 c0,0,46.2,55,46.2,55c1.2,1.4,1.5,2.7-0.2,4.4c-5.9-6.9-41-48.9-47.6-56.8c-2.8-3.3-5.7-4.3-9-3c-5.3,2-6.2,8.1-2.5,11.9 C102.2,75.1,162.6,139.5,155.1,140.9L155.1,140.9z M104,109.8c0,0-0.9,2.5-0.9,2.5l-27,68.1c-1,2.6-2,3.2-4.6,2l-14.4-5.9 c-1.6-0.7-2.1-1.4-1.3-3.1l28-68.8c0.7-1.5,1.3-2.1,3-1.4C87.9,103.5,103.6,109,104,109.8L104,109.8z M86.5,106.1 c-1.4,3.7-24.3,59.5-26.5,65c-0.9,2.2-0.4,3.1,1.6,3.9l8.7,3.6c2.2,1.1,3.1,0.7,4-1.6c0,0,26-65.8,26-65.8L86.5,106.1L86.5,106.1z  M152.8,141.5l-63,10.4c-0.4-0.9,5.9-17.5,6.4-18.8c0.7-1.9,2-2.3,3.6-2.5c1.8-0.4,32.7-5.4,33.3-5.8 C142,121.1,146.5,135.9,152.8,141.5z M93.8,148.3l53.6-8.9c0,0-8.8-11-8.8-11c-1.4-1.9-8.4,0.4-10.2,0.4c0,0-26.3,4.6-26.3,4.6 C96.3,135,96.6,143.2,93.8,148.3L93.8,148.3z M69.6,134.9c-0.2,1.5-7.1,17-7.9,18.9c-0.7,1.8-1.9,2.4-3.8,2.7c-25,2-20.2,10-24-15.9 C33.9,140.6,69.6,134.9,69.6,134.9z M65,138.7c-1.6,0.9-28,2.8-27.3,6.2c0.8,3.1-0.3,9.9,3.5,10.9C61.2,152.5,56.5,157.8,65,138.7z  M199.8,181.2c4-8.4-7-38.7-19-26.5c-0.8-4.2,3.8-7.7,7.5-6.1c13.8,7.3,20.9,29.8,10,41.9c-0.9-5.1-2-9.4-7.2-11.4 c-4.6-2.6-13.9-4.5-13.6-11.3L199.8,181.2L199.8,181.2z"></path><path class="st0" d="M50.8,212.2c0.7-7.8,2.5-24.6,3.3-32.4c0.2-2.3,0.8-3,3-2c2,0.9,15.2,5.9,16.7,7l-22.2,27.8 C51.4,212.5,51.1,212.4,50.8,212.2L50.8,212.2z M54.6,203.6c0.2,0.1,0.4,0.1,0.7,0.2l14.1-17.9L57.1,181L54.6,203.6L54.6,203.6z  M98.7,84.5c5.7,2.1,14.3,5.2,10.7,12.9c0,0-3.6,8.4-3.6,8.4c-0.7,1.6-1.4,2.2-3.2,1.5l-14.8-5.5c-1.8-0.7-1.9-1.6-1.3-3.1 C89,93.1,90.8,84.4,98.7,84.5z M89.6,99.2c14.3,4.3,12.2,8.5,17-3.2c3.3-6.2-12.1-11.4-13.8-4.7C92.8,91.3,89.5,99.2,89.6,99.2 L89.6,99.2z M185.6,135.6c-0.7-2.8,1-3.2,2.6-3.4l13.8-1.9c-3.4-13.2,1.8-13.4-12.7-11.4c-0.8-2.3,0.3-3,1.8-3.2l9.3-1.2 c0.7-0.1,2,1,2.2,1.8l2.7,14.7c0.1,0.7-0.7,1.9-1.1,2L185.6,135.6L185.6,135.6z M86.6,106l13.9,5l-26.1,65.9 c-1.7,5.4-9-1.7-12.7-1.9c-2.1-0.7-2.5-1.6-1.6-3.9C62.4,165.3,84.9,110.2,86.6,106z"></path><path class="st0" d="M93.9,148.3l5-13.1c0.3-2.6,27.4-5.5,29.4-6.4c1.9,0,8.8-2.3,10.2-0.4c0,0,8.8,11,8.8,11L93.9,148.3L93.9,148.3 z M65,138.8c-8.5,19.2-3.7,13.6-23.9,17c-3.7-0.8-2.7-7.8-3.5-10.9C36.8,141.5,63.5,139.7,65,138.8L65,138.8z M54.6,203.6l2.5-22.6 l12.2,4.8l-14.1,17.9C55,203.8,54.8,203.7,54.6,203.6L54.6,203.6z M89.6,99.2l3.3-7.9c2-6.6,16.8-1.6,13.8,4.7 C101.9,107.9,104,103.6,89.6,99.2z M295.1,69.8h12.1l30.6,45.2l31.7-45.2h11.4l-37,52.7l39.2,55.5h-12.5l-32.8-47.7L304.3,178h-11.8 l38.8-55.5L295.1,69.8z M445.7,124.3c-8.8-35.2-52.3-16.9-49.5,14.7c-2.8,33.4,43.5,48.7,50.2,11h9.6c-6.6,48.7-73.2,33.5-69.4-11 c-4.2-42.4,60.8-60.5,68.7-14.6L445.7,124.3z M539,138.9c1.5,54.6-75.5,54.7-74.1,0C463.5,84.2,540.5,84.2,539,138.9z M474.6,138.9 c-1.2,43.8,55.7,43.5,54.8,0C530.3,94.6,473.7,94.9,474.6,138.9z M622,178h-8.9v-15h-0.4c-19.4,34.2-66.2,13.3-63-24.2 c0-22.1,11.4-41.3,35.2-41.3c11.8,0,23.1,6.1,27.1,17.1h0.4V69.8h9.6V178z M584.9,172.4c37.4,0,37.1-66.5,0-66.7 C550.6,105.7,550.2,172.2,584.9,172.4z M645.5,141.4c-2.2,31.8,41.1,44.4,50.2,10.7h9.6c-9,45.7-74.1,32.2-69.4-13.2 c-1.4-56.2,74.1-54.5,69.4,2.5L645.5,141.4z M696,133.6c-0.7-36.8-48.7-36.4-50.6,0H696z"></path></svg>